<svg width="14" height="16" xmlns="http://www.w3.org/2000/svg" xmlns:xlink="http://www.w3.org/1999/xlink" xml:space="preserve" overflow="hidden"><g><path d="M4.75 0.75C4.75 0.334375 4.41563 0 4 0 3.58437 0 3.25 0.334375 3.25 0.75L3.25 2 2 2C0.896875 2 0 2.89687 0 4L0 4.5 0 6 0 14C0 15.1031 0.896875 16 2 16L12 16C13.1031 16 14 15.1031 14 14L14 6 14 4.5 14 4C14 2.89687 13.1031 2 12 2L10.75 2 10.75 0.75C10.75 0.334375 10.4156 0 10 0 9.58438 0 9.25 0.334375 9.25 0.75L9.25 2 4.75 2 4.75 0.75ZM1.5 6 12.5 6 12.5 14C12.5 14.275 12.275 14.5 12 14.5L2 14.5C1.725 14.5 1.5 14.275 1.5 14L1.5 6ZM7 7.25C6.58437 7.25 6.25 7.58437 6.25 8L6.25 9.5 4.75 9.5C4.33437 9.5 4 9.83438 4 10.25 4 10.6656 4.33437 11 4.75 11L6.25 11 6.25 12.5C6.25 12.9156 6.58437 13.25 7 13.25 7.41563 13.25 7.75 12.9156 7.75 12.5L7.75 11 9.25 11C9.66562 11 10 10.6656 10 10.25 10 9.83438 9.66562 9.5 9.25 9.5L7.75 9.5 7.75 8C7.75 7.58437 7.41563 7.25 7 7.25Z" fill="#000000" fill-opacity="0.30196"/></g></svg>